<svg xmlns="http://www.w3.org/2000/svg" fill="none" viewBox="0 0 470 69">
  <path d="M47.65 45.77v.57c.2 3.14-.25 5.99-1.34 8.55a20.37 20.37 0 01-4.7 6.72 23.06 23.06 0 01-6.34 4.13 27.83 27.83 0 01-12.96 2.01c-.32 0-.8-.06-1.44-.19-.32 0-.8-.06-1.44-.2h-.38a.85.85 0 00-.39-.09c-.25-.13-.48-.19-.67-.19-.2 0-.45-.03-.77-.1a5.27 5.27 0 00-.67-.28c-.26-.07-.7-.23-1.34-.48-.39-.07-.8-.23-1.25-.48-.13-.07-.35-.16-.67-.3l-.58-.28-.58-.29-.57-.29a24.31 24.31 0 01-6.72-5.76 22.89 22.89 0 01-2.98-4.8c-.32-.64-.54-1.05-.67-1.24l-.2-.48 1.54-.58c.07.06.13.2.2.38.06.2.25.61.57 1.25.64 1.41 1.57 2.88 2.79 4.42a22.18 22.18 0 006.24 5.37l.57.3.58.28 1.15.58c.26.12.64.25 1.15.38.45.2.87.35 1.25.48a6.64 6.64 0 011.34.29c.07.06.16.13.3.19h.38c.12.06.35.1.67.1.51.12.96.19 1.34.19.64.13 1.12.19 1.44.19 4.35.32 8.39-.29 12.1-1.82a23.75 23.75 0 005.95-3.84 18.6 18.6 0 004.22-6.24 16.49 16.49 0 001.25-7.78v-.48c0-.06-.03-.13-.1-.2v-.28l-.19-1.06c0-.25-.06-.57-.19-.96l-.38-1.05a13.71 13.71 0 00-.87-1.92l-.48-.96a2.22 2.22 0 01-.28-.48l-.39-.39A20.05 20.05 0 0037 33.58a38.6 38.6 0 00-6.63-2.88 60.85 60.85 0 00-3.36-1.06l-1.63-.48-1.63-.48c-2.69-.77-4.6-1.4-5.76-1.92-1.98-.83-3.42-1.8-4.32-2.88l-.2-.2-.18-.18-.1-.2c-.06-.12-.13-.19-.2-.19l-.28-.48-.2-.19c0-.13-.02-.22-.09-.29 0-.06-.06-.22-.19-.48-.06-.06-.1-.22-.1-.48-.12-.25-.19-.45-.19-.57l-.1-.48c-.06-.13-.09-.32-.09-.58v-1.73c0-.13.03-.32.1-.57.06-.26.1-.45.1-.58l.18-.48.2-.48a8.27 8.27 0 012.4-3.46c.96-.76 2.17-1.47 3.64-2.1.52-.14.87-.23 1.06-.3h.48c.26-.06.45-.12.58-.19.12-.06.32-.1.57-.1.13-.06.32-.09.58-.09.19-.06.54-.1 1.05-.1.26-.06.61-.1 1.06-.1h1.06c.96 0 1.63.04 2.01.1.13 0 .29.04.48.1h.48l.48.2h.48c.2 0 .32.02.39.09.06 0 .12.03.19.1h.29c.38.12.64.19.76.19 2.05.7 3.75 1.63 5.1 2.78.76.58 1.6 1.4 2.49 2.5l.48.86-1.35.58H36.8v-.2c-.06 0-.09-.03-.09-.1 0-.06-.03-.12-.1-.18-.76-.9-1.47-1.64-2.1-2.21a14.5 14.5 0 00-4.62-2.4 7.06 7.06 0 00-.76-.29.85.85 0 01-.39-.1h-.38c-.39-.12-.67-.19-.87-.19-.12-.06-.41-.1-.86-.1-.38-.06-1-.09-1.82-.09-.13-.06-.32-.06-.58 0h-1.44l-.48.2h-.96c-.13.06-.29.09-.48.09-.26.06-.58.16-.96.29-.26.06-.58.16-.96.28a8.94 8.94 0 00-3.17 1.73 6.1 6.1 0 00-1.92 2.79l-.19.38-.1.38c-.06.07-.1.2-.1.39s-.02.35-.09.48v.96c.07.13.1.32.1.57V20.14c.06.06.1.12.1.19 0 .06.03.16.09.29V21l.1.1.19.38c0 .06.03.13.1.2l.09.18c0 .07.06.16.2.3.06 0 .09.02.09.09 0 .06.03.13.1.19l.19.2.1.18c.95.96 2.23 1.76 3.83 2.4a38.1 38.1 0 005.57 1.92l1.54.39 1.72.57c.96.26 2.08.61 3.36 1.06 2.37.77 4.7 1.76 7.01 2.98a26.5 26.5 0 013.46 2.3l.86.67c.13.2.39.48.77.87.32.19.58.44.77.76l.77.96.38.48c.06.07.16.23.29.48l.29.58c.12.2.22.35.28.48.13.2.32.54.58 1.06 0 .12.06.32.2.57.12.26.18.45.18.58l.39 1.05.29 1.16.19 1.15c0 .25.03.41.1.48zM13 10.34c-3.14 2.63-4.35 5.99-3.65 10.08a9.41 9.41 0 002.4 5.28 17.7 17.7 0 005.18 3.36c1.67.77 3.72 1.48 6.15 2.12 1.4.38 2.5.67 3.26.86l1.54.58c.7.19 1.25.35 1.63.48 2.43.9 4.51 1.79 6.24 2.68 2.43 1.41 4.22 2.88 5.38 4.42l.28.38.2.39.48.67c.06.06.12.2.19.38.06.2.13.36.19.48 0 .13.03.3.1.48.06.13.12.23.19.3l.29.86c.12.38.19.67.19.86l.19.86v.77a14.04 14.04 0 01-4.7 11.9 18 18 0 01-5.1 3.37 23.24 23.24 0 01-10.94 1.72c-.25 0-.7-.06-1.34-.19-.13-.06-.35-.1-.67-.1-.26-.06-.45-.09-.58-.09-.25 0-.45-.03-.57-.1-.07-.06-.16-.1-.3-.1-.12 0-.22-.02-.28-.09l-1.15-.29c-.64-.19-1.38-.44-2.21-.76a3.31 3.31 0 01-.96-.48c-.06-.07-.16-.1-.29-.1-.13 0-.22-.03-.29-.1 0-.06-.06-.12-.19-.19l-.19-.1a20.92 20.92 0 01-5.57-4.7 30.8 30.8 0 01-3.07-5.18l-.1-.39 1.44-.57c.13.32.36.8.68 1.44a39.25 39.25 0 002.3 3.65 16.23 16.23 0 005.09 4.32c.06.06.19.16.38.28.07 0 .13.04.2.1.12 0 .22.03.28.1l.58.28c.19.07.32.13.38.2l.58.28c.25.07.48.13.67.2l.77.19c.19.06.54.16 1.05.29.07 0 .16.03.3.1h.28c.06 0 .13.02.2.09.12.06.22.1.28.1.13 0 .32.03.58.09h.67c.51.13.9.2 1.15.2 3.84.25 7.23-.26 10.18-1.54 1.66-.77 3.23-1.8 4.7-3.08a14.88 14.88 0 003.26-4.7c.77-1.8 1.1-3.74.96-5.86l-.1-.38v-.38l-.18-.77c0-.07-.04-.2-.1-.39v-.38l-.29-.67c0-.07-.1-.29-.29-.67-.06-.2-.16-.42-.28-.68l-.39-.67c-.06 0-.1-.06-.1-.19 0-.06-.03-.13-.09-.2l-.29-.28a15.85 15.85 0 00-4.8-3.94 44.12 44.12 0 00-9.12-3.55c-.83-.32-1.92-.64-3.26-.96-2.5-.7-4.61-1.44-6.34-2.2a17.12 17.12 0 01-5.66-3.75 10.16 10.16 0 01-2.88-6.05 11.62 11.62 0 01.19-4.9c0-.12.03-.28.1-.47.06-.2.1-.32.1-.39.06-.13.15-.38.28-.77a12.12 12.12 0 013.55-5.08 16.38 16.38 0 015.09-2.88c.2 0 .42-.07.67-.2.26-.12.48-.19.67-.19.13 0 .36-.03.68-.1.32-.06.54-.12.67-.19H20c.19-.06.32-.1.38-.1.13-.06.35-.09.67-.09.13-.06.32-.1.58-.1.32 0 .54-.03.67-.09 3.4-.26 6.53.06 9.4.96a18.9 18.9 0 019.9 7.2c.06.13.12.22.19.29.13.25.22.41.29.48l.19.48-1.54.57a1.12 1.12 0 01-.19-.28l-.2-.39-.28-.57a19.35 19.35 0 00-2.98-3.08 20.13 20.13 0 00-5.95-3.16 22.89 22.89 0 00-9.31-.77c-.26.06-.45.1-.58.1h-.57c-.07 0-.2.03-.39.09a.74.74 0 01-.28.1c-.13.06-.36.12-.68.19h-.57c-.26.13-.64.25-1.15.38-1.8.64-3.33 1.5-4.61 2.6zM3.59 21.3l-.2-1.15v-2.02c0-.51.04-.9.1-1.15l.1-.87a10.55 10.55 0 01.48-2.3c0-.13.03-.29.1-.48l.28-.58a15.8 15.8 0 014.7-6.81 21.9 21.9 0 016.54-3.65c.19-.06.44-.13.76-.2l.87-.28c.45-.13.99-.26 1.63-.38h.29c.19-.07.35-.1.48-.1.06-.06.19-.1.38-.1.2 0 .32-.03.39-.1h.67c.38-.06.67-.09.86-.09.32-.06.8-.1 1.44-.1h.67c.32-.06.58-.09.77-.09a13 13 0 011.35.1c.64 0 1.12.03 1.44.1.19 0 .44.02.76.09.32.06.55.1.68.1l1.34.28c.26 0 .45.03.58.1.06 0 .16.03.28.1.2 0 .32.03.39.09.13 0 .32.03.57.1a23.65 23.65 0 018.45 4.42 18.63 18.63 0 014.13 4.31c.26.39.42.67.48.87.06.12.16.25.29.38 0 .13.06.26.19.38l.29.68-1.54.57-.29-.57a.74.74 0 01-.1-.3c-.12-.12-.18-.22-.18-.28l-.3-.29c-.06-.19-.12-.35-.18-.48a18.8 18.8 0 00-3.84-4.03 20.94 20.94 0 00-7.2-3.84 5.95 5.95 0 00-1.16-.38c-.06 0-.28-.07-.67-.2-.25 0-.45-.03-.57-.1-.13-.06-.36-.09-.68-.09-.25 0-.44-.03-.57-.1-.13-.06-.35-.09-.67-.09-.26 0-.45-.03-.58-.1-.26-.06-.7-.1-1.34-.1-.58 0-1.03-.02-1.35-.09-.19 0-.45.03-.77.1h-.57c-.64 0-1.12.03-1.44.1-.13 0-.35.03-.67.09h-.77c-.13.06-.35.1-.67.1-.07 0-.2.03-.39.1-.19 0-.32.02-.38.09l-1.54.29c-.13.06-.35.16-.67.28a16.36 16.36 0 00-6.72 3.55 14.05 14.05 0 00-4.32 6.15c0 .13-.03.29-.1.48a13.51 13.51 0 00-.48 1.44l-.28 1.92c-.07.2-.1.51-.1.96v1.92c.06.45.13.77.2.96l.09 1.06c.06.06.13.22.19.48.06.25.1.41.1.48a2.63 2.63 0 00.28 1.05l.48.96c0 .07.07.23.2.48l.28.48.58.87.58.86.38.48.38.38a19.9 19.9 0 006.44 4.32c1.53.64 3.77 1.41 6.72 2.3l1.63.49 1.53.38 1.64.58c.76.19 1.24.32 1.44.38 2.3.77 4.16 1.57 5.56 2.4 1.8.96 3.14 2.05 4.04 3.27l.19.28c.06.07.1.13.1.2.06.12.19.28.38.48v.28l.19.2c.13.25.2.44.2.57l.18.48c.07.13.1.32.1.58l.1.57c.06.07.1.16.1.3v.38c.12 1.72-.1 3.3-.68 4.7a12.45 12.45 0 01-6.72 6.34 14.1 14.1 0 01-4.42 1.24c-1.02.2-2.52.23-4.5.1h-.58c-.2-.06-.36-.1-.48-.1-.13-.06-.32-.1-.58-.1-.2 0-.35-.02-.48-.09-.2 0-.35-.03-.48-.1h-.29a3.16 3.16 0 00-1.15-.29 3.76 3.76 0 01-.86-.38l-.87-.28c-.06 0-.19-.07-.38-.2-.13-.12-.26-.19-.39-.19-.12 0-.25-.06-.38-.19-.13 0-.26-.06-.38-.2-1.67-.89-3.1-2.14-4.32-3.74-.7-.83-1.38-1.88-2.02-3.16l-.48-.96-.1-.3 1.54-.66c0 .06.03.19.1.38 0 .06.03.13.1.2l.28.57a12.94 12.94 0 005.76 6.24c.13.13.22.19.29.19l.38.2c.26.12.48.22.67.28l.77.29c.07.06.2.13.39.19s.32.1.38.1l.86.28c.2 0 .36.04.48.1.2 0 .32.03.39.1.13 0 .29.03.48.1h.48c.13 0 .29.02.48.09h.48c1.6.13 2.97.1 4.13-.1 1.6-.19 2.97-.54 4.12-1.05 2.88-1.28 4.8-3.14 5.76-5.57.52-1.15.7-2.47.58-3.94v-.48c-.06-.13-.1-.29-.1-.48 0-.06-.03-.13-.1-.19v-.29c-.06-.06-.09-.13-.09-.19a.74.74 0 01-.1-.29l-.19-.38v-.2c-.06-.06-.1-.12-.1-.19a1.5 1.5 0 01-.28-.38c-.06-.06-.1-.13-.1-.2l-.19-.18c-.64-.9-1.79-1.83-3.45-2.79a30.76 30.76 0 00-5.38-2.3c-1.28-.39-2.27-.7-2.98-.96l-1.44-.39-1.63-.48a46.26 46.26 0 01-6.91-2.4c-.26-.06-.58-.19-.96-.38a7.4 7.4 0 00-.86-.38l-1.83-1.06a4.78 4.78 0 00-.86-.58c-.39-.32-.67-.57-.87-.76-.06-.07-.19-.16-.38-.3-.2-.18-.35-.31-.48-.38l-.86-.86-.39-.38-.38-.48c-.07-.13-.2-.3-.39-.48a2.22 2.22 0 00-.28-.48 4.08 4.08 0 01-.68-1.06l-.28-.48-.3-.58a6.38 6.38 0 00-.47-1.15c-.07-.19-.16-.54-.29-1.05a.74.74 0 00-.1-.3c-.06-.18-.12-.34-.19-.47v-.39c-.06-.12-.1-.28-.1-.48 0-.25-.03-.44-.09-.57zm75.4 16.22L51.53 1.32h2.11l27.07 35.62v31.58H79v-31zm4.41-1.53L57 1.32h2.11L85.13 35.4v33.12H83.4V35.98zm5.19-3.27l23.8-31.39h2.21L89.45 34.34v34.18h-1.63V34.54L62.47 1.32h2.21l18.43 24.2 18.34-24.2h2.11l-19.4 25.63 1.74 2.21 21.02-27.84h2.2L86.96 30.6l1.64 2.11zm40.44-24.77a2.3 2.3 0 00-1.73-.28c-.64.12-1.22.41-1.73.86-.45.38-.7.9-.77 1.54v3.55c0 3.58-.03 6.24-.1 7.97v15.07c-.12 13.7-.19 24.16-.19 31.39h-1.72c.06-3.07.1-8.22.1-15.46.06-7.3.09-12.6.09-15.93 0-6.53.03-11.55.1-15.07v-8.55c0-1.15.03-1.98.1-2.5 0-.5.02-.89.09-1.15v-.57c.06-.07.1-.23.1-.48.19-.83.6-1.47 1.24-1.92.64-.64 1.34-1 2.11-1.06a5.72 5.72 0 012.5.39c.13.06.22.12.29.19l.38.38.77.87c.38.38.67.7.86.96.26.38.51.7.77.96.51.76 1.03 1.47 1.54 2.1A6564.44 6564.44 0 01144 25.23c2.75 3.65 4.83 6.47 6.23 8.45 2.5 3.33 6.18 8.32 11.04 14.98.51.64 1.38 1.79 2.6 3.45a471.3 471.3 0 014.99 6.92l.57.76.3.39c.12.13.25.22.38.29.57.32 1.15.44 1.72.38.51 0 1.06-.22 1.63-.67.45-.39.77-.9.97-1.54.06-.19.1-.48.1-.86V.94h1.62V58.25a9.2 9.2 0 01-.38 2.2c-.2.71-.6 1.32-1.25 1.83-.57.58-1.31.86-2.2.86-.84.13-1.6 0-2.31-.38l-.2-.2c-.06-.06-.12-.09-.19-.09l-.1-.1-.28-.38-.77-.86c-.32-.32-.86-1-1.63-2.02-.64-.9-1.15-1.6-1.53-2.11a111.6 111.6 0 00-2.7-3.65 111.6 111.6 0 01-2.68-3.65c-.51-.7-2.15-2.88-4.9-6.52-2.69-3.72-4.73-6.56-6.14-8.55l-5.76-7.68a1157.2 1157.2 0 00-10.66-14.6l-1.15-1.43c-.45-.7-.8-1.25-1.06-1.63a9.44 9.44 0 00-1.24-1.35zm-2.98-5.18c-.96.2-1.89.58-2.78 1.15-.77.7-1.35 1.41-1.73 2.11-.26.52-.42.9-.48 1.16l-.29.76c0 .13-.03.23-.1.3v.38l-.28 3.45v9.41c0 1.86-.03 4.48-.1 7.87v7.3c-.06 6.85-.1 17.31-.1 31.39h-1.72V52.87c.06-7.3.1-12.7.1-16.22v-7.3c.06-3.39.09-6.01.09-7.87v-5c.06-2.23.1-3.93.1-5.08V9.29l.1-.96c0-.26.06-.58.18-.96l.1-.39c0-.06.03-.12.1-.19V6.6l.38-.77c.2-.51.41-.93.67-1.25a12 12 0 012.2-2.2c.14 0 .27-.07.4-.2.12-.12.25-.19.38-.19.06-.06.29-.19.67-.38l.86-.29a8.46 8.46 0 014.51-.2c.13.07.26.1.39.1.38.13.6.2.67.2l.58.28.77.39.28.19.2.2c.06.06.12.09.19.09.38.25.64.45.77.57l.67.77.67.87c.2.32.57.9 1.15 1.72.64.84 1.15 1.48 1.54 1.92a6152.23 6152.23 0 0024.29 33.12c3.84 5.12 6.72 9.03 8.64 11.72V.94h1.72V54.7c0 .32-.03.54-.1.67-.12.57-.44.86-.95.86-.32 0-.55-.06-.67-.19-.07 0-.13-.03-.2-.1l-.1-.1-.19-.28c-.06-.13-.19-.32-.38-.58a382.13 382.13 0 00-5.86-7.87 442.6 442.6 0 00-5.66-7.68c-2.43-3.39-4.2-5.85-5.28-7.39l-5.76-7.68c-2.43-3.4-4.2-5.82-5.28-7.3-1.28-1.72-3.13-4.25-5.57-7.58l-1.15-1.44c-.45-.7-.8-1.22-1.06-1.54l-.57-.76-.58-.68-.57-.57-.3-.2-.28-.19-.58-.48-.57-.28-.2-.1-.38-.2c-.25-.12-.48-.18-.67-.18a6.13 6.13 0 00-2.88-.1zm54.53 54.91c0 .9-.03 1.57-.1 2.02v.57c0 .07-.03.13-.1.2v.19c-.12.38-.19.67-.19.86l-.28.77-.2.38c0 .07-.06.16-.19.3-.06.18-.16.4-.28.66l-.3.3a7.22 7.22 0 01-2.5 2.4 8.96 8.96 0 01-4.79 1.24h-.86c-.07-.06-.2-.1-.39-.1-.19-.06-.32-.1-.38-.1-.06-.06-.2-.09-.39-.09-.12 0-.22-.03-.28-.1l-.67-.19-.1-.1c-.13 0-.2-.02-.2-.09l-.38-.19-.67-.29c-.06-.06-.2-.16-.38-.29l-.3-.28-.38-.3-.38-.38c-.2-.19-.45-.48-.77-.86a4.78 4.78 0 00-.57-.86c-.2-.32-.61-.9-1.25-1.73a288.43 288.43 0 01-6.91-9.4c-1.1-1.42-4.77-6.41-11.04-14.99l-8.16-11.04-8.07-11.04c0 2.76-.03 6.56-.1 11.43v10.08c-.06 6.85-.09 17.31-.09 31.39h-1.73V52.87c.07-7.3.1-12.7.1-16.22.06-3.14.1-8.16.1-15.07 0-3.08.03-5.41.1-7.01v-1.44c0-.58.31-.87.95-.87.13-.06.35-.03.67.1l.48.48c.13.13.3.35.48.67.2.26.32.45.39.58.44.57 1.25 1.7 2.4 3.36a311.6 311.6 0 002.88 3.74c4.86 6.66 8.54 11.68 11.04 15.07l10.94 14.98 5.47 7.49c.64.83 1.38 1.82 2.21 2.97.06.13.16.3.29.48.2.2.35.39.48.58l.38.38c.07.07.16.2.3.39l.28.19.29.29c.19.13.32.22.38.29l.48.38.29.2.1.09h.19l.57.38c.07 0 .16.03.3.1a4.01 4.01 0 00.96.29c.12 0 .25.03.37.1h1.83a8.11 8.11 0 002.78-1.06 6.36 6.36 0 001.92-2.02c.13-.13.2-.22.2-.29l.1-.29.28-.57v-.1l.1-.19.1-.38.18-.68c.2-.64.3-1.76.3-3.36V.94h1.72v56.73zm3.8-54.33V1.7h42.8v1.64h-42.8zm0 4.41V6.02h42.8v1.73h-42.8zm16.5 4.42h-16.5v-1.73h42.8v1.73h-15.83V68.9h-1.73V12.17h-2.6V68.9h-1.72V12.17h-2.69V68.9h-1.73V12.17zm83.8 21.7H245.9h38.78zm7.5 34.17V1.51h1.62v66.53h-1.63zm-2.7 0h-1.73V1.51h1.73v66.53zm-42.24-39.36h36.1V1.51h1.73v66.53h-1.73v-28.9h-36.1v28.9h-1.73V1.51h1.73v27.17zm36.1 4.42v-2.7h-36.1v2.7h36.1zm-36.1 1.63v2.69h36.1v-2.7h-36.1zm-8.73 33.31h-1.73V1.51h1.73v66.53zm4.32 0h-1.64V1.51h1.64v66.53zm80.1-66.34h19.2v1.73H311.3c-.96 0-1.66.03-2.11.1-.58.06-1.15.22-1.73.48-.13.06-.29.13-.48.19a.74.74 0 01-.29.1l-.67.67c-.26.38-.48.9-.67 1.53-.2.58-.29 1.25-.29 2.02V61.22c0 .77.1 1.44.29 2.02.19.64.41 1.15.67 1.54.32.32.54.5.67.57.26.2.51.32.77.39.58.25 1.15.41 1.73.48h32.93v1.72h-31.4c-1.4 0-2.24-.03-2.5-.1a4.07 4.07 0 01-1.91-.66c-.07-.07-.2-.13-.39-.2-.19-.12-.32-.22-.38-.28a2.2 2.2 0 01-.77-.77c-.38-.45-.7-1-.96-1.63a6.18 6.18 0 01-.48-2.4V7.75c0-.9.16-1.66.48-2.3.32-.77.64-1.31.96-1.63.2-.32.45-.58.77-.77.2-.2.45-.35.77-.48.51-.45 1.15-.7 1.92-.77.51-.06 1.34-.1 2.5-.1h12.19zm-9.41 4.42h28.6v1.73h-32.25c-.06 0-.2.1-.38.29V61.5l.38.39h32.26v1.72h-30.05c-.64 0-1.12-.03-1.44-.1-.64 0-1.12-.02-1.44-.09-.26 0-.48-.03-.67-.1-.2 0-.36-.12-.48-.38-.2-.83-.3-1.79-.3-2.88V9.67c0-1.02.1-1.98.3-2.88.12-.19.28-.35.48-.48.32 0 .54-.03.67-.1h.67c.32-.06.58-.09.77-.09h2.88zm.29 4.42h28.32v1.72H313.9v16.42h24.29v1.73H313.9v2.69h24.29v1.72H313.9v2.7h24.29v1.72H313.9V57.48H342.13v1.73h-29.77c-.12 0-.19-.07-.19-.2V10.64c.07-.06.13-.1.2-.1h1.44zm78.84 35.23v.57c.2 3.14-.25 5.99-1.34 8.55a20.37 20.37 0 01-4.7 6.72 23.06 23.06 0 01-6.34 4.13 27.83 27.83 0 01-12.96 2.01c-.32 0-.8-.06-1.44-.19-.32 0-.8-.06-1.44-.2h-.38a.85.85 0 00-.39-.09c-.25-.13-.48-.19-.67-.19-.2 0-.45-.03-.77-.1a5.27 5.27 0 00-.67-.28c-.26-.07-.7-.23-1.34-.48-.39-.07-.8-.23-1.25-.48-.13-.07-.35-.16-.67-.3l-.58-.28-.58-.29-.57-.29a24.31 24.31 0 01-6.72-5.76 22.89 22.89 0 01-2.98-4.8c-.32-.64-.54-1.05-.67-1.24l-.2-.48 1.54-.58c.07.06.13.2.2.38.06.2.25.61.57 1.25.64 1.41 1.57 2.88 2.79 4.42a22.18 22.18 0 006.24 5.37l.57.3.58.28 1.15.58c.26.12.64.25 1.15.38.45.2.87.35 1.25.48a6.64 6.64 0 011.34.29c.07.06.16.13.3.19h.38c.12.06.35.1.67.1.51.12.96.19 1.34.19.64.13 1.12.19 1.44.19 4.35.32 8.39-.29 12.1-1.82a23.75 23.75 0 005.95-3.84 18.6 18.6 0 004.22-6.24 16.49 16.49 0 001.25-7.78v-.48c0-.06-.03-.13-.1-.2v-.28l-.19-1.06c0-.25-.06-.57-.19-.96l-.38-1.05a13.71 13.71 0 00-.87-1.92l-.48-.96a2.22 2.22 0 01-.28-.48l-.39-.39a20.05 20.05 0 00-6.14-5.08 38.6 38.6 0 00-6.63-2.88 60.85 60.85 0 00-3.36-1.06l-1.63-.48-1.63-.48c-2.69-.77-4.6-1.4-5.76-1.92-1.98-.83-3.42-1.8-4.32-2.88l-.2-.2-.18-.18-.1-.2c-.06-.12-.13-.19-.2-.19l-.28-.48-.2-.19c0-.13-.02-.22-.09-.29 0-.06-.06-.22-.19-.48-.06-.06-.1-.22-.1-.48-.12-.25-.19-.45-.19-.57l-.1-.48c-.06-.13-.09-.32-.09-.58v-1.73c0-.13.03-.32.1-.57.06-.26.1-.45.1-.58l.18-.48.2-.48a8.27 8.27 0 012.4-3.46c.96-.76 2.17-1.47 3.64-2.1.52-.14.87-.23 1.06-.3h.48c.26-.06.45-.12.58-.19.12-.06.32-.1.57-.1.13-.06.32-.09.58-.09.19-.06.54-.1 1.05-.1.26-.06.61-.1 1.06-.1h1.06c.96 0 1.63.04 2.01.1.13 0 .29.04.48.1h.48l.48.2h.48c.2 0 .32.02.39.09.06 0 .12.03.19.1h.29c.38.12.64.19.76.19 2.05.7 3.75 1.63 5.1 2.78.76.58 1.6 1.4 2.49 2.5l.48.86-1.35.58H381.8v-.2c-.06 0-.09-.03-.09-.1 0-.06-.03-.12-.1-.18-.76-.9-1.47-1.64-2.1-2.21a14.5 14.5 0 00-4.62-2.4 7.06 7.06 0 00-.76-.29.85.85 0 01-.39-.1h-.38c-.39-.12-.67-.19-.87-.19-.12-.06-.41-.1-.86-.1-.38-.06-1-.09-1.82-.09-.13-.06-.32-.06-.58 0h-1.44l-.48.2h-.96c-.13.06-.29.09-.48.09-.26.06-.58.16-.96.29-.26.06-.58.16-.96.28a8.94 8.94 0 00-3.17 1.73 6.1 6.1 0 00-1.92 2.79l-.19.38-.1.38c-.06.07-.1.2-.1.39s-.02.35-.09.48v.96c.07.13.1.32.1.57V20.14c.06.06.1.12.1.19 0 .06.03.16.09.29V21l.1.1.19.38c0 .06.03.13.1.2l.09.18c0 .07.06.16.2.3.06 0 .09.02.09.09 0 .06.03.13.1.19l.19.2.1.18c.95.96 2.23 1.76 3.83 2.4a38.1 38.1 0 005.57 1.92l1.54.39 1.72.57c.96.26 2.08.61 3.36 1.06 2.37.77 4.7 1.76 7.01 2.98a26.5 26.5 0 013.46 2.3l.86.67c.13.2.39.48.77.87.32.19.58.44.77.76l.77.96.38.48c.06.07.16.23.29.48l.29.58c.12.2.22.35.28.48.13.2.32.54.58 1.06 0 .12.06.32.2.57.12.26.18.45.18.58l.39 1.05.29 1.16.19 1.15c0 .25.03.41.1.48zM358 10.34c-3.14 2.63-4.35 5.99-3.65 10.08a9.41 9.41 0 002.4 5.28 17.7 17.7 0 005.18 3.36c1.67.77 3.72 1.48 6.15 2.12 1.4.38 2.5.67 3.26.86l1.54.58c.7.19 1.25.35 1.63.48 2.43.9 4.51 1.79 6.24 2.68 2.43 1.41 4.22 2.88 5.38 4.42l.28.38.2.39.48.67c.06.06.12.2.19.38.06.2.13.36.19.48 0 .13.03.3.1.48.06.13.12.23.19.3l.29.86c.12.38.19.67.19.86l.19.86v.77a14.04 14.04 0 01-4.7 11.9 18 18 0 01-5.1 3.37 23.24 23.24 0 01-10.94 1.72c-.25 0-.7-.06-1.34-.19-.13-.06-.35-.1-.67-.1-.26-.06-.45-.09-.58-.09-.25 0-.45-.03-.57-.1-.07-.06-.16-.1-.3-.1-.12 0-.22-.02-.28-.09l-1.15-.29c-.64-.19-1.38-.44-2.21-.76a3.31 3.31 0 01-.96-.48c-.06-.07-.16-.1-.29-.1-.13 0-.22-.03-.29-.1 0-.06-.06-.12-.19-.19l-.19-.1a20.92 20.92 0 01-5.57-4.7 30.8 30.8 0 01-3.07-5.18l-.1-.39 1.44-.57c.13.32.36.8.68 1.44a39.25 39.25 0 002.3 3.65 16.23 16.23 0 005.09 4.32c.06.06.19.16.38.28.07 0 .13.04.2.1.12 0 .22.03.28.1l.58.28c.19.07.32.13.38.2l.58.28c.25.07.48.13.67.2l.77.19c.19.06.54.16 1.05.29.07 0 .16.03.3.1h.28c.06 0 .13.02.2.09.12.06.22.1.28.1.13 0 .32.03.58.09h.67c.51.13.9.2 1.15.2 3.84.25 7.23-.26 10.18-1.54 1.66-.77 3.23-1.8 4.7-3.08a14.88 14.88 0 003.26-4.7c.77-1.8 1.1-3.74.96-5.86l-.1-.38v-.38l-.18-.77c0-.07-.04-.2-.1-.39v-.38l-.29-.67c0-.07-.1-.29-.29-.67-.06-.2-.16-.42-.28-.68l-.39-.67c-.06 0-.1-.06-.1-.19 0-.06-.03-.13-.09-.2l-.29-.28a15.85 15.85 0 00-4.8-3.94 44.12 44.12 0 00-9.12-3.55c-.83-.32-1.92-.64-3.26-.96-2.5-.7-4.61-1.44-6.34-2.2a17.12 17.12 0 01-5.66-3.75 10.16 10.16 0 01-2.88-6.05 11.62 11.62 0 01.19-4.9c0-.12.03-.28.1-.47.06-.2.1-.32.1-.39.06-.13.15-.38.28-.77a12.12 12.12 0 013.55-5.08 16.38 16.38 0 015.09-2.88c.2 0 .42-.07.67-.2.26-.12.48-.19.67-.19.13 0 .36-.03.68-.1.32-.06.54-.12.67-.19h.29c.19-.06.32-.1.38-.1.13-.06.35-.09.67-.09.13-.06.32-.1.58-.1.32 0 .54-.03.67-.09 3.4-.26 6.53.06 9.4.96a18.9 18.9 0 019.9 7.2c.06.13.12.22.19.29.13.25.22.41.29.48l.19.48-1.54.57a1.12 1.12 0 01-.19-.28l-.2-.39-.28-.57a19.35 19.35 0 00-2.98-3.08 20.13 20.13 0 00-5.95-3.16 22.89 22.89 0 00-9.31-.77c-.26.06-.45.1-.58.1h-.57c-.07 0-.2.03-.39.09a.74.74 0 01-.28.1c-.13.06-.36.12-.68.19h-.57c-.26.13-.64.25-1.15.38-1.8.64-3.33 1.5-4.61 2.6zm-9.41 10.95l-.2-1.15v-2.02c0-.51.04-.9.1-1.15l.1-.87a10.55 10.55 0 01.48-2.3c0-.13.03-.29.1-.48l.28-.58a15.8 15.8 0 014.7-6.81 21.9 21.9 0 016.54-3.65c.19-.06.44-.13.76-.2l.87-.28c.45-.13.99-.26 1.63-.38h.29c.19-.07.35-.1.48-.1.06-.06.19-.1.38-.1.2 0 .32-.03.39-.1h.67c.38-.06.67-.09.86-.09.32-.06.8-.1 1.44-.1h.67c.32-.06.58-.09.77-.09a13 13 0 011.35.1c.64 0 1.12.03 1.44.1.19 0 .44.02.76.09.32.06.55.1.68.1l1.34.28c.26 0 .45.03.58.1.06 0 .16.03.28.1.2 0 .32.03.39.09.13 0 .32.03.57.1a23.65 23.65 0 018.45 4.42 18.63 18.63 0 014.13 4.31c.26.39.42.67.48.87.06.12.16.25.29.38 0 .13.06.26.19.38l.29.68-1.54.57-.29-.57a.74.74 0 01-.1-.3c-.12-.12-.18-.22-.18-.28l-.3-.29c-.06-.19-.12-.35-.18-.48a18.8 18.8 0 00-3.84-4.03 20.94 20.94 0 00-7.2-3.84 5.95 5.95 0 00-1.16-.38c-.06 0-.28-.07-.67-.2-.25 0-.45-.03-.57-.1-.13-.06-.36-.09-.68-.09-.25 0-.44-.03-.57-.1-.13-.06-.35-.09-.67-.09-.26 0-.45-.03-.58-.1-.26-.06-.7-.1-1.34-.1-.58 0-1.03-.02-1.35-.09-.19 0-.45.03-.77.1h-.57c-.64 0-1.12.03-1.44.1-.13 0-.35.03-.67.09h-.77c-.13.06-.35.1-.67.1-.07 0-.2.03-.39.1-.19 0-.32.02-.38.09l-1.54.29c-.13.06-.35.16-.67.28a16.36 16.36 0 00-6.72 3.55 14.05 14.05 0 00-4.32 6.15c0 .13-.03.29-.1.48a13.5 13.5 0 00-.48 1.44l-.28 1.92c-.07.2-.1.51-.1.96v1.92c.06.45.13.77.2.96l.09 1.06c.06.06.13.22.19.48.06.25.1.41.1.48a2.63 2.63 0 00.28 1.05l.48.96c0 .07.07.23.2.48l.28.48.58.87.58.86.38.48.38.38a19.9 19.9 0 006.44 4.32c1.53.64 3.77 1.41 6.72 2.3l1.63.49 1.53.38 1.64.58c.76.19 1.24.32 1.44.38 2.3.77 4.16 1.57 5.56 2.4 1.8.96 3.14 2.05 4.04 3.27l.19.28c.06.07.1.13.1.2.06.12.19.28.38.48v.28l.19.2c.13.25.2.44.2.57l.18.48c.07.13.1.32.1.58l.1.57c.06.07.1.16.1.3v.38c.12 1.72-.1 3.3-.68 4.7a12.45 12.45 0 01-6.72 6.34 14.1 14.1 0 01-4.42 1.24c-1.02.2-2.52.23-4.5.1h-.58c-.2-.06-.36-.1-.48-.1-.13-.06-.32-.1-.58-.1-.2 0-.35-.02-.48-.09-.2 0-.35-.03-.48-.1h-.29a3.16 3.16 0 00-1.15-.29 3.76 3.76 0 01-.86-.38l-.87-.28c-.06 0-.19-.07-.38-.2-.13-.12-.26-.19-.39-.19-.12 0-.25-.06-.38-.19-.13 0-.26-.06-.38-.2-1.67-.89-3.1-2.14-4.32-3.74-.7-.83-1.38-1.88-2.02-3.16l-.48-.96-.1-.3 1.54-.66c0 .06.03.19.1.38 0 .06.03.13.1.2l.28.57a12.94 12.94 0 005.76 6.24c.13.13.22.19.29.19l.38.2c.26.12.48.22.67.28l.77.29c.07.06.2.13.39.19s.32.1.38.1l.86.28c.2 0 .36.04.48.1.2 0 .32.03.39.1.13 0 .29.03.48.1h.48c.13 0 .29.02.48.09h.48c1.6.13 2.97.1 4.13-.1 1.6-.19 2.97-.54 4.12-1.05 2.88-1.28 4.8-3.14 5.76-5.57.52-1.15.7-2.47.58-3.94v-.48c-.06-.13-.1-.29-.1-.48 0-.06-.03-.13-.1-.19v-.29c-.06-.06-.09-.13-.09-.19a.74.74 0 01-.1-.29l-.19-.38v-.2c-.06-.06-.1-.12-.1-.19a1.5 1.5 0 01-.28-.38c-.06-.06-.1-.13-.1-.2l-.19-.18c-.64-.9-1.79-1.83-3.45-2.79a30.76 30.76 0 00-5.38-2.3c-1.28-.39-2.27-.7-2.98-.96l-1.44-.39-1.63-.48a46.26 46.26 0 01-6.91-2.4c-.26-.06-.58-.19-.96-.38a7.4 7.4 0 00-.86-.38l-1.83-1.06a4.78 4.78 0 00-.86-.58c-.39-.32-.67-.57-.87-.76-.06-.07-.19-.16-.38-.3-.2-.18-.35-.31-.48-.38l-.86-.86-.39-.38-.38-.48c-.07-.13-.2-.3-.39-.48a2.22 2.22 0 00-.28-.48 4.08 4.08 0 01-.68-1.06l-.28-.48-.3-.58a6.38 6.38 0 00-.47-1.15c-.07-.19-.16-.54-.29-1.05a.74.74 0 00-.1-.3c-.06-.18-.12-.34-.19-.47v-.39c-.06-.12-.1-.28-.1-.48 0-.25-.03-.44-.09-.57zm55.43 46.75h-1.73V1.61h1.73v66.43zm4.41 0h-1.73V1.61h1.73v66.43zm2.7 0V1.61h1.62v66.43h-1.63zm57.84-22.27v.57c.19 3.14-.26 5.99-1.35 8.55a20.37 20.37 0 01-4.7 6.72 23.06 23.06 0 01-6.34 4.13 27.83 27.83 0 01-12.96 2.01c-.32 0-.8-.06-1.44-.19-.32 0-.8-.06-1.44-.2h-.38a.85.85 0 00-.38-.09c-.26-.13-.49-.19-.68-.19-.19 0-.44-.03-.76-.1a5.27 5.27 0 00-.68-.28c-.25-.07-.7-.23-1.34-.48-.38-.07-.8-.23-1.25-.48-.13-.07-.35-.16-.67-.3l-.58-.28-.57-.29-.58-.29a24.31 24.31 0 01-6.72-5.76 22.89 22.89 0 01-2.97-4.8c-.32-.64-.55-1.05-.68-1.24l-.19-.48 1.54-.58c.06.06.13.2.19.38.06.2.25.61.57 1.25.64 1.41 1.57 2.88 2.79 4.42a22.18 22.18 0 006.24 5.37l.57.3.58.28 1.15.58c.26.12.64.25 1.16.38.44.2.86.35 1.24.48a6.64 6.64 0 011.34.29c.07.06.17.13.3.19h.38c.13.06.35.1.67.1.51.12.96.19 1.35.19.63.13 1.12.19 1.44.19 4.35.32 8.38-.29 12.1-1.82a23.75 23.75 0 005.94-3.84 18.6 18.6 0 004.23-6.24 16.49 16.49 0 001.25-7.78v-.48c0-.06-.04-.13-.1-.2v-.28l-.2-1.06c0-.25-.06-.57-.19-.96l-.38-1.05a13.71 13.71 0 00-.86-1.92l-.48-.96a2.22 2.22 0 01-.3-.48l-.38-.39a20.05 20.05 0 00-6.14-5.08 38.6 38.6 0 00-6.62-2.88 60.85 60.85 0 00-3.36-1.06l-1.63-.48-1.64-.48c-2.69-.77-4.6-1.4-5.76-1.92-1.98-.83-3.42-1.8-4.32-2.88l-.19-.2-.2-.18-.09-.2c-.06-.12-.13-.19-.19-.19l-.29-.48-.19-.19c0-.13-.03-.22-.1-.29 0-.06-.06-.22-.19-.48-.06-.06-.1-.22-.1-.48-.12-.25-.19-.45-.19-.57l-.1-.48c-.05-.13-.09-.32-.09-.58v-1.73c0-.13.04-.32.1-.57.06-.26.1-.45.1-.58l.19-.48.19-.48a8.27 8.27 0 012.4-3.46c.96-.76 2.17-1.47 3.65-2.1.5-.14.86-.23 1.05-.3h.48c.26-.06.45-.12.58-.19.13-.06.32-.1.57-.1.13-.06.32-.09.58-.09.2-.06.55-.1 1.06-.1.25-.06.6-.1 1.05-.1h1.06c.96 0 1.63.04 2.01.1.13 0 .3.04.49.1h.48l.47.2h.49c.19 0 .31.02.38.09.06 0 .13.03.2.1h.28c.38.12.64.19.77.19 2.05.7 3.74 1.63 5.08 2.78.77.58 1.6 1.4 2.5 2.5l.48.86-1.34.58H458.1v-.2c-.06 0-.09-.03-.09-.1 0-.06-.03-.12-.1-.18-.76-.9-1.47-1.64-2.1-2.21a14.5 14.5 0 00-4.61-2.4 7.06 7.06 0 00-.77-.29.85.85 0 01-.38-.1h-.39c-.38-.12-.67-.19-.86-.19-.13-.06-.42-.1-.87-.1-.38-.06-.99-.09-1.82-.09-.13-.06-.32-.06-.58 0h-1.44l-.48.2h-.96c-.13.06-.29.09-.48.09-.25.06-.57.16-.96.29-.25.06-.57.16-.96.28a8.94 8.94 0 00-3.16 1.73 6.1 6.1 0 00-1.93 2.79l-.19.38-.1.38c-.06.07-.09.2-.09.39s-.03.35-.1.48v.96c.07.13.1.32.1.57V20.14c.06.06.1.12.1.19 0 .06.03.16.1.29V21l.09.1.2.38c0 .06.02.13.09.2l.1.18c0 .07.06.16.18.3.07 0 .1.02.1.09 0 .06.03.13.1.19l.19.2.1.18c.96.96 2.24 1.76 3.84 2.4a38.1 38.1 0 005.56 1.92l1.54.39 1.73.57c.96.26 2.08.61 3.36 1.06 2.37.77 4.7 1.76 7 2.98a26.5 26.5 0 013.46 2.3l.87.67c.12.2.38.48.76.87.32.19.58.44.77.76l.77.96.38.48c.07.07.16.23.3.48l.28.58.29.48c.13.2.32.54.57 1.06 0 .12.07.32.2.57.12.26.19.45.19.58l.38 1.05.29 1.16.2 1.15c0 .25.02.41.09.48zM434.3 10.34c-3.13 2.63-4.35 5.99-3.65 10.08a9.41 9.41 0 002.4 5.28 17.7 17.7 0 005.19 3.36c1.66.77 3.7 1.48 6.14 2.12 1.4.38 2.5.67 3.26.86l1.54.58c.7.19 1.25.35 1.63.48 2.44.9 4.51 1.79 6.24 2.68 2.44 1.41 4.23 2.88 5.38 4.42l.29.38.19.39.48.67c.06.06.13.2.2.38.05.2.12.36.18.48 0 .13.04.3.1.48.06.13.13.23.2.3l.28.86c.13.38.2.67.2.86l.18.86v.77a14.04 14.04 0 01-4.7 11.9 18 18 0 01-5.09 3.37 23.24 23.24 0 01-10.94 1.72c-.26 0-.7-.06-1.35-.19-.13-.06-.35-.1-.67-.1-.25-.06-.45-.09-.57-.09-.26 0-.45-.03-.58-.1-.06-.06-.16-.1-.29-.1-.13 0-.22-.02-.29-.09l-1.15-.29c-.64-.19-1.38-.44-2.2-.76a3.31 3.31 0 01-.97-.48c-.06-.07-.16-.1-.29-.1-.12 0-.22-.03-.28-.1 0-.06-.07-.12-.2-.19l-.19-.1a20.92 20.92 0 01-5.56-4.7 30.8 30.8 0 01-3.08-5.18l-.1-.39 1.45-.57c.13.32.35.8.67 1.44a39.25 39.25 0 002.3 3.65 16.23 16.23 0 005.1 4.32c.06.06.18.16.38.28.06 0 .12.04.19.1.13 0 .22.03.29.1l.57.28c.2.07.32.13.38.2l.58.28c.26.07.48.13.67.2l.77.19 1.06.29c.06 0 .16.03.29.1h.28c.07 0 .13.02.2.09.12.06.22.1.28.1.13 0 .32.03.58.09h.67c.51.13.9.2 1.15.2 3.84.25 7.23-.26 10.18-1.54 1.66-.77 3.23-1.8 4.7-3.08a14.88 14.88 0 003.27-4.7c.76-1.8 1.08-3.74.96-5.86l-.1-.38v-.38l-.2-.77c0-.07-.02-.2-.09-.39v-.38l-.28-.67c0-.07-.1-.29-.3-.67-.06-.2-.15-.42-.28-.68l-.38-.67c-.07 0-.1-.06-.1-.19 0-.06-.03-.13-.1-.2l-.28-.28a15.85 15.85 0 00-4.8-3.94 44.12 44.12 0 00-9.13-3.55c-.83-.32-1.92-.64-3.26-.96-2.5-.7-4.6-1.44-6.34-2.2a17.12 17.12 0 01-5.66-3.75 10.16 10.16 0 01-2.88-6.05 11.62 11.62 0 01.2-4.9c0-.12.02-.28.09-.47.06-.2.1-.32.1-.39.06-.13.15-.38.28-.77a12.12 12.12 0 013.56-5.08 16.38 16.38 0 015.08-2.88c.2 0 .42-.07.68-.2.25-.12.48-.19.67-.19.13 0 .35-.03.67-.1.32-.06.54-.12.67-.19h.29c.2-.06.32-.1.38-.1.13-.06.36-.09.68-.09.12-.06.31-.1.57-.1.32 0 .55-.03.67-.09 3.4-.26 6.53.06 9.41.96a18.9 18.9 0 019.89 7.2c.06.13.13.22.2.29.12.25.21.41.28.48l.2.48-1.55.57a1.12 1.12 0 01-.19-.28l-.19-.39-.29-.57a19.35 19.35 0 00-2.97-3.08 20.13 20.13 0 00-5.96-3.16 22.89 22.89 0 00-9.3-.77c-.26.06-.45.1-.58.1h-.58c-.06 0-.2.03-.38.09a.74.74 0 01-.3.1c-.12.06-.34.12-.66.19h-.58c-.25.13-.64.25-1.15.38-1.8.64-3.33 1.5-4.6 2.6zm-9.4 10.95c-.07-.32-.14-.7-.2-1.15v-2.02c0-.51.03-.9.1-1.15 0-.07.03-.35.1-.87a10.55 10.55 0 01.47-2.3c0-.13.04-.29.1-.48l.29-.58a15.8 15.8 0 014.7-6.81A21.9 21.9 0 01437 2.28c.2-.06.45-.13.77-.2l.86-.28c.45-.13 1-.26 1.63-.38h.3c.18-.07.34-.1.47-.1.07-.06.2-.1.39-.1s.31-.03.38-.1h.67c.38-.06.67-.09.86-.09.32-.06.8-.1 1.44-.1h.68c.32-.06.57-.09.76-.09a13 13 0 011.35.1c.64 0 1.12.03 1.44.1.2 0 .45.02.77.09.32.06.54.1.67.1l1.34.28c.26 0 .45.03.58.1.06 0 .16.03.29.1.19 0 .32.03.38.09.13 0 .32.03.58.1a23.65 23.65 0 018.45 4.42 18.63 18.63 0 014.12 4.31c.26.39.42.67.48.87.07.12.16.25.3.38 0 .13.06.26.18.38l.3.68-1.55.57-.28-.57a.74.74 0 01-.1-.3c-.13-.12-.2-.22-.2-.28l-.28-.29c-.06-.19-.13-.35-.2-.48A18.8 18.8 0 00461 7.56a20.94 20.94 0 00-7.2-3.84 5.95 5.95 0 00-1.15-.38c-.07 0-.3-.07-.67-.2-.26 0-.45-.03-.58-.1-.13-.06-.35-.09-.67-.09-.26 0-.45-.03-.58-.1-.13-.06-.35-.09-.67-.09-.26 0-.45-.03-.58-.1-.25-.06-.7-.1-1.34-.1-.58 0-1.02-.02-1.35-.09-.19 0-.44.03-.76.1h-.58c-.64 0-1.12.03-1.44.1-.13 0-.35.03-.67.09h-.77c-.13.06-.35.1-.67.1-.06 0-.2.03-.38.1-.2 0-.32.02-.39.09l-1.54.29c-.12.06-.35.16-.67.28a16.36 16.36 0 00-6.72 3.55 14.05 14.05 0 00-4.32 6.15c0 .13-.03.29-.1.48a13.5 13.5 0 00-.48 1.44c0 .06-.09.7-.28 1.92-.06.2-.1.51-.1.96v1.92c.07.45.13.77.2.96l.1 1.06c.06.06.12.22.18.48.07.25.1.41.1.48a2.63 2.63 0 00.29 1.05l.48.96c0 .07.06.23.19.48l.29.48.57.87.58.86.38.48.39.38a19.9 19.9 0 006.43 4.32c1.54.64 3.78 1.41 6.72 2.3l1.63.49 1.54.38 1.63.58c.77.19 1.25.32 1.44.38 2.3.77 4.16 1.57 5.57 2.4 1.79.96 3.13 2.05 4.03 3.27l.2.28c.06.07.09.13.09.2.06.12.19.28.38.48v.28l.2.2c.12.25.19.44.19.57l.19.48c.06.13.1.32.1.58l.09.57c.06.07.1.16.1.3v.38c.12 1.72-.1 3.3-.68 4.7a12.45 12.45 0 01-6.72 6.34 14.1 14.1 0 01-4.41 1.24c-1.03.2-2.53.23-4.51.1h-.58c-.2-.06-.35-.1-.48-.1-.13-.06-.32-.1-.58-.1-.19 0-.35-.02-.48-.09-.19 0-.35-.03-.48-.1h-.28a3.16 3.16 0 00-1.15-.29 3.76 3.76 0 01-.87-.38l-.86-.28c-.07 0-.2-.07-.39-.2-.13-.12-.25-.19-.38-.19s-.26-.06-.39-.19c-.13 0-.25-.06-.38-.2-1.67-.89-3.1-2.14-4.32-3.74-.7-.83-1.38-1.88-2.02-3.16l-.48-.96-.1-.3 1.54-.66c0 .06.03.19.1.38 0 .06.03.13.1.2l.28.57a12.94 12.94 0 005.76 6.24c.13.13.23.19.3.19l.38.2c.25.12.47.22.67.28l.77.29c.06.06.19.13.38.19.2.06.32.1.38.1l.87.28c.19 0 .35.04.48.1.19 0 .32.03.38.1.13 0 .29.03.48.1h.48c.13 0 .29.02.48.09h.48c1.6.13 2.98.1 4.13-.1 1.6-.19 2.98-.54 4.13-1.05 2.88-1.28 4.8-3.14 5.76-5.57.5-1.15.7-2.47.57-3.94v-.48c-.06-.13-.1-.29-.1-.48 0-.06-.02-.13-.09-.19v-.29c-.06-.06-.1-.13-.1-.19a.74.74 0 01-.1-.29l-.18-.38v-.2c-.07-.06-.1-.12-.1-.19a1.5 1.5 0 01-.29-.38c-.06-.06-.1-.13-.1-.2l-.19-.18c-.63-.9-1.79-1.83-3.45-2.79a30.76 30.76 0 00-5.38-2.3c-1.28-.39-2.27-.7-2.97-.96l-1.44-.39-1.63-.48a46.26 46.26 0 01-6.92-2.4c-.25-.06-.57-.19-.96-.38a7.4 7.4 0 00-.86-.38l-1.82-1.06a4.78 4.78 0 00-.87-.58c-.38-.32-.67-.57-.86-.76-.07-.07-.2-.16-.39-.3-.19-.18-.35-.31-.48-.38l-.86-.86-.38-.38-.39-.48c-.06-.13-.2-.3-.38-.48a2.22 2.22 0 00-.3-.48 4.08 4.08 0 01-.66-1.06l-.3-.48-.28-.58a6.38 6.38 0 00-.48-1.15c-.06-.19-.16-.54-.29-1.05a.74.74 0 00-.1-.3l-.18-.47v-.39c-.07-.12-.1-.28-.1-.48 0-.25-.03-.44-.1-.57z"/>
</svg>